<svg xmlns="http://www.w3.org/2000/svg" width="480" height="480" viewBox="-240 -240 480 480"><rect x="-240" y="-240" width="480" height="480" fill="#0d1117"/><g opacity="0"><animate attributeName="opacity" calcMode="discrete" repeatCount="indefinite" dur="2s" keyTimes="0;0.0417;0.0833;0.125;0.1667;0.2083;0.25;0.2917;0.3333;0.375;0.4167;0.4583;0.5;0.5417;0.5833;0.625;0.6667;0.7083;0.75;0.7917;0.8333;0.875;0.9167;0.9583;1" values="1;0;0;0;0;0;0;0;0;0;0;0;0;0;0;0;0;0;0;0;0;0;0;0;1"/><path d="m0-100.7 77.6-23.5H-77.6z" style="fill:rgb(217,152,327);fill-opacity:1"/><path d="m0 100.7-77.6 23.5H77.6z" style="fill:rgb(168,117,255);fill-opacity:1"/><path d="M-146.4.7.9-101.2l-77.8-23.4z" style="fill:rgb(187,130,283);fill-opacity:1"/><path d="M-.9-101.2 146.4.7 76.9-124.6z" style="fill:rgb(226,158,340);fill-opacity:1"/><path d="M146.4-.7-.9 101.2l77.8 23.4z" style="fill:rgb(176,122,266);fill-opacity:1"/><path d="M.9 101.2-146.4-.7l69.5 125.3z" style="fill:rgb(174,121,264);fill-opacity:1"/><path d="M-146.6 0 .4 101.8v-203.6z" style="fill:rgb(178,124,269);fill-opacity:1"/><path d="M146.6 0-.4-101.8v203.6z" style="fill:rgb(205,143,308);fill-opacity:1"/></g><g opacity="0"><animate attributeName="opacity" calcMode="discrete" repeatCount="indefinite" dur="2s" keyTimes="0;0.0417;0.0833;0.125;0.1667;0.2083;0.25;0.2917;0.3333;0.375;0.4167;0.4583;0.5;0.5417;0.5833;0.625;0.6667;0.7083;0.75;0.7917;0.8333;0.875;0.9167;0.9583;1" values="0;1;0;0;0;0;0;0;0;0;0;0;0;0;0;0;0;0;0;0;0;0;0;0;0"/><path d="m-129.6-2.4 53.7 131.8-50-124.2z" style="fill:rgb(186,129,281);fill-opacity:1"/><path d="m-129.5-1.5 3.6 7.6 48.5-136.4z" style="fill:rgb(177,123,268);fill-opacity:1"/><path d="m41.6 104.8-118.9 23.8 148.9-10.9z" style="fill:rgb(167,116,253);fill-opacity:1"/><path d="m42.3-94 30.5-27.5-151.6-8z" style="fill:rgb(220,154,331);fill-opacity:1"/><path d="m152.7 1-112 104.3 30.1 12.9z" style="fill:rgb(174,121,264);fill-opacity:1"/><path d="m41.4-94.5 111.3 97-80.6-124.4z" style="fill:rgb(226,158,340);fill-opacity:1"/><path d="m42.4 105.3-169-100.8 50 124.5z" style="fill:rgb(168,117,255);fill-opacity:1"/><path d="M-126.5 5.9 43.1-94.6-78.1-130z" style="fill:rgb(196,137,296);fill-opacity:1"/><path d="m152.8 1.8-111-97.1-.6 201.2z" style="fill:rgb(208,145,313);fill-opacity:1"/><path d="M-126.8 5.2 42 105.9l.6-201.1z" style="fill:rgb(188,131,284);fill-opacity:1"/></g><g opacity="0"><animate attributeName="opacity" calcMode="discrete" repeatCount="indefinite" dur="2s" keyTimes="0;0.0417;0.0833;0.125;0.1667;0.2083;0.25;0.2917;0.3333;0.375;0.4167;0.4583;0.5;0.5417;0.5833;0.625;0.6667;0.7083;0.75;0.7917;0.8333;0.875;0.9167;0.9583;1" values="0;0;1;0;0;0;0;0;0;0;0;0;0;0;0;0;0;0;0;0;0;0;0;0;0"/><path d="m78.2 105-149.5 29.3 132.1-23.6z" style="fill:rgb(166,115,252);fill-opacity:1"/><path d="m79.4-87.6 68.2 88.7-85.3-121.8z" style="fill:rgb(224,157,338);fill-opacity:1"/><path d="m80.2-87-17.1-33.2-137.2-13.1z" style="fill:rgb(222,155,334);fill-opacity:1"/><path d="M-145.3-.9-70 135-91.6 12.4z" style="fill:rgb(180,125,273);fill-opacity:1"/><path d="m-145.3 0 53.7 13.4 18.8-147.5z" style="fill:rgb(170,118,258);fill-opacity:1"/><path d="M147.6.3 79.1-88.5 77 106.1z" style="fill:rgb(209,146,315);fill-opacity:1"/><path d="M78.2 105.4-92.5 12.1l21.8 122.6z" style="fill:rgb(163,113,247);fill-opacity:1"/><path d="M-92.5 13.6 80.4-87.7l-154-46.1z" style="fill:rgb(204,143,308);fill-opacity:1"/><path d="M-92.9 12.8 77.7 106l2.2-194.4z" style="fill:rgb(196,136,295);fill-opacity:1"/></g><g opacity="0"><animate attributeName="opacity" calcMode="discrete" repeatCount="indefinite" dur="2s" keyTimes="0;0.0417;0.0833;0.125;0.1667;0.2083;0.25;0.2917;0.3333;0.375;0.4167;0.4583;0.5;0.5417;0.5833;0.625;0.6667;0.7083;0.75;0.7917;0.8333;0.875;0.9167;0.9583;1" values="0;0;0;1;0;0;0;0;0;0;0;0;0;0;0;0;0;0;0;0;0;0;0;0;0"/><path d="m108.6-81.7-58.3-38.1-113.6-15.6z" style="fill:rgb(223,156,336);fill-opacity:1"/><path d="m133.6-3.3-26.1-79.8-4 185.1z" style="fill:rgb(208,145,313);fill-opacity:1"/><path d="m-152.5 3.3 93.9 137.8 13-120.8z" style="fill:rgb(174,121,263);fill-opacity:1"/><path d="m-152.5 4.1 106.9 17.2-16.5-157.4z" style="fill:rgb(173,120,261);fill-opacity:1"/><path d="M104.6 101.2-46.6 20l-12.8 120.8z" style="fill:rgb(163,113,247);fill-opacity:1"/><path d="M-46.5 21.5 108.6-82.3l-171.5-53.6z" style="fill:rgb(211,148,318);fill-opacity:1"/><path d="m-47 20.7 151.1 81.1 4-184.7z" style="fill:rgb(201,141,304);fill-opacity:1"/></g><g opacity="0"><animate attributeName="opacity" calcMode="discrete" repeatCount="indefinite" dur="2s" keyTimes="0;0.0417;0.0833;0.125;0.1667;0.2083;0.25;0.2917;0.3333;0.375;0.4167;0.4583;0.5;0.5417;0.5833;0.625;0.6667;0.7083;0.75;0.7917;0.8333;0.875;0.9167;0.9583;1" values="0;0;0;0;1;0;0;0;0;0;0;0;0;0;0;0;0;0;0;0;0;0;0;0;0"/><path d="m-97.7-76.5-51 87.7 103.7-148z" style="fill:rgb(176,122,265);fill-opacity:1"/><path d="M125.7-78.6 35-120.1l-81.6-16.2z" style="fill:rgb(224,157,337);fill-opacity:1"/><path d="M120.3 93.5 5.8 25.5l-48.9 120.8z" style="fill:rgb(163,113,247);fill-opacity:1"/><path d="m-148.9 9.9 106.6 136.6L6.8 25.8z" style="fill:rgb(166,116,252);fill-opacity:1"/><path d="m5.3 26.3 114.5 67.9 5.3-174z" style="fill:rgb(205,143,309);fill-opacity:1"/><path d="M-148.9 10.7 6.7 26.8l-52.2-163.7z" style="fill:rgb(183,128,277);fill-opacity:1"/><path d="M5.9 27.1 125.6-79.1l-171.8-57.6z" style="fill:rgb(217,152,327);fill-opacity:1"/></g><g opacity="0"><animate attributeName="opacity" calcMode="discrete" repeatCount="indefinite" dur="2s" keyTimes="0;0.0417;0.0833;0.125;0.1667;0.2083;0.25;0.2917;0.3333;0.375;0.4167;0.4583;0.5;0.5417;0.5833;0.625;0.6667;0.7083;0.75;0.7917;0.8333;0.875;0.9167;0.9583;1" values="0;0;0;0;0;1;0;0;0;0;0;0;0;0;0;0;0;0;0;0;0;0;0;0;0"/><path d="M131.6-77.3 17.9-120.5l-43-16z" style="fill:rgb(224,157,336);fill-opacity:1"/><path d="M-21.6 150.3-131.9 17l21.1 48.9z" style="fill:rgb(183,127,276);fill-opacity:1"/><path d="m-115.5-77.6-16.3 96.4 108.4-155.7z" style="fill:rgb(178,124,269);fill-opacity:1"/><path d="m56.7 27.7 68.5 57L131-78.6z" style="fill:rgb(207,145,312);fill-opacity:1"/><path d="M125.7 84 57.2 26.8-23 150.1z" style="fill:rgb(164,114,249);fill-opacity:1"/><path d="m57.3 28.4 74.2-106.3-156.3-58.9z" style="fill:rgb(222,155,333);fill-opacity:1"/><path d="m-132.2 17.5 110 132.8L58.1 27.2z" style="fill:rgb(163,113,247);fill-opacity:1"/><path d="M-132.2 18.3 58.1 28l-82.2-165z" style="fill:rgb(193,135,292);fill-opacity:1"/></g><g opacity="0"><animate attributeName="opacity" calcMode="discrete" repeatCount="indefinite" dur="2s" keyTimes="0;0.0417;0.0833;0.125;0.1667;0.2083;0.25;0.2917;0.3333;0.375;0.4167;0.4583;0.5;0.5417;0.5833;0.625;0.6667;0.7083;0.75;0.7917;0.8333;0.875;0.9167;0.9583;1" values="0;0;0;0;0;0;1;0;0;0;0;0;0;0;0;0;0;0;0;0;0;0;0;0;0"/><path d="m100.3 24.4 21.2 50.7L127-78.5z" style="fill:rgb(207,145,312);fill-opacity:1"/><path d="m-127-78.5 5.5 153.6 21.2-50.7z" style="fill:rgb(181,126,273);fill-opacity:1"/><path d="m122 74.3-21.2-50.8L-.7 151.6z" style="fill:rgb(168,117,255);fill-opacity:1"/><path d="M.7 151.6-100.8 23.5-122 74.4z" style="fill:rgb(177,123,268);fill-opacity:1"/><path d="m100.8 25.2 26.7-103-128.2-59z" style="fill:rgb(224,157,337);fill-opacity:1"/><path d="m-127.5-77.8 26.7 103L.7-136.8z" style="fill:rgb(185,129,279);fill-opacity:1"/><path d="M-101.5 23.9 0 151.7 101.5 23.9z" style="fill:rgb(165,114,250);fill-opacity:1"/><path d="M-101.4 24.8h202.8L0-137z" style="fill:rgb(203,141,305);fill-opacity:1"/></g><g opacity="0"><animate attributeName="opacity" calcMode="discrete" repeatCount="indefinite" dur="2s" keyTimes="0;0.0417;0.0833;0.125;0.1667;0.2083;0.25;0.2917;0.3333;0.375;0.4167;0.4583;0.5;0.5417;0.5833;0.625;0.6667;0.7083;0.75;0.7917;0.8333;0.875;0.9167;0.9583;1" values="0;0;0;0;0;0;0;1;0;0;0;0;0;0;0;0;0;0;0;0;0;0;0;0;0"/><path d="m-17.9-120.5-113.7 43.2 156.7-59.2z" style="fill:rgb(201,140,303);fill-opacity:1"/><path d="M110.8 65.9 131.9 17 21.6 150.3z" style="fill:rgb(170,118,258);fill-opacity:1"/><path d="m131.8 18.8-16.3-96.4-92.1-59.3z" style="fill:rgb(225,158,339);fill-opacity:1"/><path d="m-131-78.6 5.8 163.3 68.5-57z" style="fill:rgb(174,121,263);fill-opacity:1"/><path d="M23 150.1-57.2 26.8-125.7 84z" style="fill:rgb(171,118,258);fill-opacity:1"/><path d="m-131.5-77.9 74.2 106.3 82.1-165.2z" style="fill:rgb(194,135,293);fill-opacity:1"/><path d="m-58.1 27.2 80.3 123.1 110-132.8z" style="fill:rgb(175,121,264);fill-opacity:1"/><path d="m-58.1 28 190.3-9.7L24.1-137z" style="fill:rgb(210,147,317);fill-opacity:1"/></g><g opacity="0"><animate attributeName="opacity" calcMode="discrete" repeatCount="indefinite" dur="2s" keyTimes="0;0.0417;0.0833;0.125;0.1667;0.2083;0.25;0.2917;0.3333;0.375;0.4167;0.4583;0.5;0.5417;0.5833;0.625;0.6667;0.7083;0.75;0.7917;0.8333;0.875;0.9167;0.9583;1" values="0;0;0;0;0;0;0;0;1;0;0;0;0;0;0;0;0;0;0;0;0;0;0;0;0"/><path d="m148.7 11.2-51-87.7L45-136.8z" style="fill:rgb(225,157,338);fill-opacity:1"/><path d="m-35-120.1-90.7 41.5 172.3-57.7z" style="fill:rgb(204,142,308);fill-opacity:1"/><path d="M43.1 146.3-5.8 25.5l-114.5 68z" style="fill:rgb(163,113,248);fill-opacity:1"/><path d="m-6.8 25.8 49.1 120.7L148.9 9.9z" style="fill:rgb(183,127,276);fill-opacity:1"/><path d="m-125.1-79.8 5.3 174L-5.3 26.3z" style="fill:rgb(166,115,251);fill-opacity:1"/><path d="m-6.7 26.8 155.6-16.1L45.5-136.9z" style="fill:rgb(216,151,326);fill-opacity:1"/><path d="M-125.6-79.1-5.9 27.1l52.1-163.8z" style="fill:rgb(203,142,306);fill-opacity:1"/></g><g opacity="0"><animate attributeName="opacity" calcMode="discrete" repeatCount="indefinite" dur="2s" keyTimes="0;0.0417;0.0833;0.125;0.1667;0.2083;0.25;0.2917;0.3333;0.375;0.4167;0.4583;0.5;0.5417;0.5833;0.625;0.6667;0.7083;0.75;0.7917;0.8333;0.875;0.9167;0.9583;1" values="0;0;0;0;0;0;0;0;0;1;0;0;0;0;0;0;0;0;0;0;0;0;0;0;0"/><path d="m-50.3-119.8-58.3 38.1 171.9-53.7z" style="fill:rgb(207,145,312);fill-opacity:1"/><path d="m-103.5 102-4-185.1-26.1 79.8z" style="fill:rgb(179,125,271);fill-opacity:1"/><path d="m45.6 20.3 13 120.8L152.5 3.3z" style="fill:rgb(188,131,284);fill-opacity:1"/><path d="M45.6 21.3 152.5 4.1 62.1-136.1z" style="fill:rgb(220,154,331);fill-opacity:1"/><path d="M59.4 140.8 46.5 20l-151.1 81.2z" style="fill:rgb(163,113,247);fill-opacity:1"/><path d="m-108.5-82.3 155 103.8 16.4-157.4z" style="fill:rgb(211,148,318);fill-opacity:1"/><path d="m-108.1-82.9 4 184.7L47 20.7z" style="fill:rgb(170,118,257);fill-opacity:1"/></g><g opacity="0"><animate attributeName="opacity" calcMode="discrete" repeatCount="indefinite" dur="2s" keyTimes="0;0.0417;0.0833;0.125;0.1667;0.2083;0.25;0.2917;0.3333;0.375;0.4167;0.4583;0.5;0.5417;0.5833;0.625;0.6667;0.7083;0.75;0.7917;0.8333;0.875;0.9167;0.9583;1" values="0;0;0;0;0;0;0;0;0;0;1;0;0;0;0;0;0;0;0;0;0;0;0;0;0"/><path d="M71.3 134.3-78.2 105l17.4 5.7z" style="fill:rgb(175,122,265);fill-opacity:1"/><path d="M-62.3-120.7-147.6 1.1l68.2-88.7z" style="fill:rgb(176,122,266);fill-opacity:1"/><path d="M-63.1-120.2-80.2-87l154.3-46.3z" style="fill:rgb(211,147,317);fill-opacity:1"/><path d="M91.6 12.4 70 135 145.3-.9z" style="fill:rgb(190,132,287);fill-opacity:1"/><path d="M91.6 13.4 145.3 0 72.8-134.1z" style="fill:rgb(221,155,333);fill-opacity:1"/><path d="m-77 106.1-2.1-194.6L-147.6.3z" style="fill:rgb(172,119,260);fill-opacity:1"/><path d="M70.8 134.7 92.5 12.1l-170.7 93.3z" style="fill:rgb(163,113,247);fill-opacity:1"/><path d="M-80.4-87.7 92.5 13.6 73.6-133.8z" style="fill:rgb(218,153,329);fill-opacity:1"/><path d="m-79.9-88.4 2.2 194.4L92.9 12.8z" style="fill:rgb(184,128,277);fill-opacity:1"/></g><g opacity="0"><animate attributeName="opacity" calcMode="discrete" repeatCount="indefinite" dur="2s" keyTimes="0;0.0417;0.0833;0.125;0.1667;0.2083;0.25;0.2917;0.3333;0.375;0.4167;0.4583;0.5;0.5417;0.5833;0.625;0.6667;0.7083;0.75;0.7917;0.8333;0.875;0.9167;0.9583;1" values="0;0;0;0;0;0;0;0;0;0;0;1;0;0;0;0;0;0;0;0;0;0;0;0;0"/><path d="m125.9 5.2-50 124.2L129.6-2.4z" style="fill:rgb(189,131,285);fill-opacity:1"/><path d="m125.9 6.1 3.6-7.6-52.1-128.8z" style="fill:rgb(220,154,331);fill-opacity:1"/><path d="m77.3 128.6-118.9-23.8-30 12.9z" style="fill:rgb(172,119,260);fill-opacity:1"/><path d="M-72.8-121.5-42.3-94l121.1-35.5z" style="fill:rgb(214,150,322);fill-opacity:1"/><path d="M-40.7 105.2-152.7 1l81.9 117.2z" style="fill:rgb(181,126,274);fill-opacity:1"/><path d="M-72.1-121.9-152.7 2.5l111.3-97z" style="fill:rgb(179,125,271);fill-opacity:1"/><path d="M76.6 129 126.5 4.5-42.4 105.3z" style="fill:rgb(170,118,258);fill-opacity:1"/><path d="M-43.1-94.6 126.5 5.9 78.1-130z" style="fill:rgb(223,156,336);fill-opacity:1"/><path d="m-41.2 105.9-.6-201.2-111 97.1z" style="fill:rgb(163,113,247);fill-opacity:1"/><path d="m-42.6-95.2.6 201.1L126.8 5.2z" style="fill:rgb(195,136,295);fill-opacity:1"/></g><g opacity="0"><animate attributeName="opacity" calcMode="discrete" repeatCount="indefinite" dur="2s" keyTimes="0;0.0417;0.0833;0.125;0.1667;0.2083;0.25;0.2917;0.3333;0.375;0.4167;0.4583;0.5;0.5417;0.5833;0.625;0.6667;0.7083;0.75;0.7917;0.8333;0.875;0.9167;0.9583;1" values="0;0;0;0;0;0;0;0;0;0;0;0;1;0;0;0;0;0;0;0;0;0;0;0;0"/><path d="M-77.6-124.2 0-100.7l77.6-23.5z" style="fill:rgb(217,152,327);fill-opacity:1"/><path d="M77.6 124.2 0 100.7l-77.6 23.5z" style="fill:rgb(168,117,255);fill-opacity:1"/><path d="M-.9-101.2 146.4.7 76.9-124.6z" style="fill:rgb(226,158,340);fill-opacity:1"/><path d="M-76.9-124.6-146.4.7.9-101.2z" style="fill:rgb(187,130,283);fill-opacity:1"/><path d="M.9 101.2-146.4-.7l69.5 125.3z" style="fill:rgb(174,121,264);fill-opacity:1"/><path d="M76.9 124.6 146.4-.7-.9 101.2z" style="fill:rgb(176,122,266);fill-opacity:1"/><path d="M-.4-101.8v203.6L146.6 0z" style="fill:rgb(205,143,308);fill-opacity:1"/><path d="M.4 101.8v-203.6L-146.6 0z" style="fill:rgb(178,124,269);fill-opacity:1"/></g><g opacity="0"><animate attributeName="opacity" calcMode="discrete" repeatCount="indefinite" dur="2s" keyTimes="0;0.0417;0.0833;0.125;0.1667;0.2083;0.25;0.2917;0.3333;0.375;0.4167;0.4583;0.5;0.5417;0.5833;0.625;0.6667;0.7083;0.75;0.7917;0.8333;0.875;0.9167;0.9583;1" values="0;0;0;0;0;0;0;0;0;0;0;0;0;1;0;0;0;0;0;0;0;0;0;0;0"/><path d="m-125.9-5.2 50-124.2-53.7 131.8z" style="fill:rgb(177,123,268);fill-opacity:1"/><path d="m-125.9-6.1-3.6 7.6 52.1 128.8z" style="fill:rgb(185,129,280);fill-opacity:1"/><path d="m-77.3-128.6 118.9 23.8 30-12.9z" style="fill:rgb(219,153,330);fill-opacity:1"/><path d="M72.8 121.5 42.3 94l-121.1 35.5z" style="fill:rgb(165,115,250);fill-opacity:1"/><path d="M40.7-105.2 152.7-1 70.8-118.2z" style="fill:rgb(226,158,340);fill-opacity:1"/><path d="M72.1 121.9 152.7-2.5l-111.3 97z" style="fill:rgb(177,123,268);fill-opacity:1"/><path d="M-76.6-129-126.5-4.5 42.4-105.3z" style="fill:rgb(198,138,298);fill-opacity:1"/><path d="M43.1 94.6-126.5-5.9-78.1 130z" style="fill:rgb(167,116,252);fill-opacity:1"/><path d="m41.2-105.9.6 201.2 111-97.1z" style="fill:rgb(210,147,317);fill-opacity:1"/><path d="M42.6 95.2 42-105.9-126.8-5.2z" style="fill:rgb(191,133,289);fill-opacity:1"/></g><g opacity="0"><animate attributeName="opacity" calcMode="discrete" repeatCount="indefinite" dur="2s" keyTimes="0;0.0417;0.0833;0.125;0.1667;0.2083;0.25;0.2917;0.3333;0.375;0.4167;0.4583;0.5;0.5417;0.5833;0.625;0.6667;0.7083;0.75;0.7917;0.8333;0.875;0.9167;0.9583;1" values="0;0;0;0;0;0;0;0;0;0;0;0;0;0;1;0;0;0;0;0;0;0;0;0;0"/><path d="M-71.3-134.3 78.2-105l-17.4-5.7z" style="fill:rgb(221,154,332);fill-opacity:1"/><path d="M62.3 120.7 147.6-1.1 79.4 87.6z" style="fill:rgb(175,122,265);fill-opacity:1"/><path d="M63.1 120.2 80.2 87l-154.3 46.3z" style="fill:rgb(163,113,247);fill-opacity:1"/><path d="M-91.6-12.4-70-135-145.3.9z" style="fill:rgb(171,119,259);fill-opacity:1"/><path d="M-91.6-13.4-145.3 0l72.5 134.1z" style="fill:rgb(178,124,270);fill-opacity:1"/><path d="m77-106.1 2.1 194.6L147.6-.3z" style="fill:rgb(213,149,320);fill-opacity:1"/><path d="M-70.8-134.7-92.5-12.1l170.7-93.3z" style="fill:rgb(207,145,312);fill-opacity:1"/><path d="M80.4 87.7-92.5-13.6l18.9 147.4z" style="fill:rgb(163,113,247);fill-opacity:1"/><path d="M79.9 88.4 77.7-106-92.9-12.8z" style="fill:rgb(202,141,305);fill-opacity:1"/></g><g opacity="0"><animate attributeName="opacity" calcMode="discrete" repeatCount="indefinite" dur="2s" keyTimes="0;0.0417;0.0833;0.125;0.1667;0.2083;0.25;0.2917;0.3333;0.375;0.4167;0.4583;0.5;0.5417;0.5833;0.625;0.6667;0.7083;0.75;0.7917;0.8333;0.875;0.9167;0.9583;1" values="0;0;0;0;0;0;0;0;0;0;0;0;0;0;0;1;0;0;0;0;0;0;0;0;0"/><path d="m50.3 119.8 58.3-38.1-171.9 53.7z" style="fill:rgb(163,113,247);fill-opacity:1"/><path d="m103.5-102 4 185.1 26.1-79.8z" style="fill:rgb(212,148,319);fill-opacity:1"/><path d="m-45.6-20.3-13-120.8-93.9 137.8z" style="fill:rgb(178,123,268);fill-opacity:1"/><path d="M-45.6-21.3-152.5-4.1l90.4 140.2z" style="fill:rgb(171,118,258);fill-opacity:1"/><path d="M-59.4-140.8-46.5-20l151.1-81.2z" style="fill:rgb(215,151,324);fill-opacity:1"/><path d="m108.5 82.3-155-103.8-16.4 157.4z" style="fill:rgb(165,114,250);fill-opacity:1"/><path d="m108.1 82.9-4-184.7L-47-20.7z" style="fill:rgb(210,146,316);fill-opacity:1"/></g><g opacity="0"><animate attributeName="opacity" calcMode="discrete" repeatCount="indefinite" dur="2s" keyTimes="0;0.0417;0.0833;0.125;0.1667;0.2083;0.25;0.2917;0.3333;0.375;0.4167;0.4583;0.5;0.5417;0.5833;0.625;0.6667;0.7083;0.75;0.7917;0.8333;0.875;0.9167;0.9583;1" values="0;0;0;0;0;0;0;0;0;0;0;0;0;0;0;0;1;0;0;0;0;0;0;0;0"/><path d="m-148.7-11.2 51 87.7 52.7 60.3z" style="fill:rgb(184,128,279);fill-opacity:1"/><path d="m35 120.1 90.7-41.5-172.3 57.7z" style="fill:rgb(163,113,247);fill-opacity:1"/><path d="M-43.1-146.3 5.8-25.5l114.5-68z" style="fill:rgb(222,155,333);fill-opacity:1"/><path d="m6.8-25.8-49.1-120.7L-148.9-9.9z" style="fill:rgb(191,133,288);fill-opacity:1"/><path d="m125.1 79.8-5.3-174L5.3-26.3z" style="fill:rgb(214,149,322);fill-opacity:1"/><path d="m6.7-26.8-155.6 16.1 103.4 147.6z" style="fill:rgb(163,113,247);fill-opacity:1"/><path d="M125.6 79.1 5.9-27.1l-52.1 163.8z" style="fill:rgb(175,121,264);fill-opacity:1"/></g><g opacity="0"><animate attributeName="opacity" calcMode="discrete" repeatCount="indefinite" dur="2s" keyTimes="0;0.0417;0.0833;0.125;0.1667;0.2083;0.25;0.2917;0.3333;0.375;0.4167;0.4583;0.5;0.5417;0.5833;0.625;0.6667;0.7083;0.75;0.7917;0.8333;0.875;0.9167;0.9583;1" values="0;0;0;0;0;0;0;0;0;0;0;0;0;0;0;0;0;1;0;0;0;0;0;0;0"/><path d="m17.9 120.5 113.7-43.2-156.7 59.2z" style="fill:rgb(163,113,247);fill-opacity:1"/><path d="M-110.8-65.9-131.9-17l110.3-133.3z" style="fill:rgb(181,126,273);fill-opacity:1"/><path d="m-131.8-18.8 16.3 96.4 92.1 59.3z" style="fill:rgb(178,124,270);fill-opacity:1"/><path d="m131 78.6-5.8-163.3-68.5 57z" style="fill:rgb(214,150,323);fill-opacity:1"/><path d="M-23-150.1 57.2-26.8 125.7-84z" style="fill:rgb(225,158,339);fill-opacity:1"/><path d="M131.5 77.9 57.3-28.4l-82.1 165.2z" style="fill:rgb(181,126,273);fill-opacity:1"/><path d="m58.1-27.2-80.3-123.1-110 132.8z" style="fill:rgb(202,141,305);fill-opacity:1"/><path d="m58.1-28-190.3 9.7L-24.1 137z" style="fill:rgb(171,119,259);fill-opacity:1"/></g><g opacity="0"><animate attributeName="opacity" calcMode="discrete" repeatCount="indefinite" dur="2s" keyTimes="0;0.0417;0.0833;0.125;0.1667;0.2083;0.25;0.2917;0.3333;0.375;0.4167;0.4583;0.5;0.5417;0.5833;0.625;0.6667;0.7083;0.75;0.7917;0.8333;0.875;0.9167;0.9583;1" values="0;0;0;0;0;0;0;0;0;0;0;0;0;0;0;0;0;0;1;0;0;0;0;0;0"/><path d="m-100.3-24.4-21.2-50.7-5.5 153.6z" style="fill:rgb(180,125,271);fill-opacity:1"/><path d="m127 78.5-5.5-153.6-21.2 50.7z" style="fill:rgb(211,148,318);fill-opacity:1"/><path d="m-122-74.3 21.2 50.8L.7-151.6z" style="fill:rgb(188,131,284);fill-opacity:1"/><path d="M-.7-151.6 100.8-23.5 122-74.4z" style="fill:rgb(227,159,341);fill-opacity:1"/><path d="m-100.8-25.2-26.7 103 128.2 59z" style="fill:rgb(172,119,260);fill-opacity:1"/><path d="m127.5 77.8-26.7-103-101.5 162z" style="fill:rgb(183,127,276);fill-opacity:1"/><path d="M101.5-23.9 0-151.7-101.5-23.9z" style="fill:rgb(212,148,319);fill-opacity:1"/><path d="M101.4-24.8h-202.8L0 137z" style="fill:rgb(183,127,276);fill-opacity:1"/></g><g opacity="0"><animate attributeName="opacity" calcMode="discrete" repeatCount="indefinite" dur="2s" keyTimes="0;0.0417;0.0833;0.125;0.1667;0.2083;0.25;0.2917;0.3333;0.375;0.4167;0.4583;0.5;0.5417;0.5833;0.625;0.6667;0.7083;0.75;0.7917;0.8333;0.875;0.9167;0.9583;1" values="0;0;0;0;0;0;0;0;0;0;0;0;0;0;0;0;0;0;0;1;0;0;0;0;0"/><path d="m-131.6 77.3 113.7 43.2 43 16z" style="fill:rgb(179,125,271);fill-opacity:1"/><path d="M21.6-150.3 131.9-17l-21.1-48.9z" style="fill:rgb(226,158,340);fill-opacity:1"/><path d="m115.5 77.6 16.3-96.4L23.4 136.9z" style="fill:rgb(181,126,274);fill-opacity:1"/><path d="m-56.7-27.7-68.5-57-5.8 163.3z" style="fill:rgb(172,119,260);fill-opacity:1"/><path d="m-125.7-84 68.5 57.2L23-150.1z" style="fill:rgb(199,139,300);fill-opacity:1"/><path d="m-57.3-28.4-74.2 106.3 156.3 58.9z" style="fill:rgb(165,114,249);fill-opacity:1"/><path d="m132.2-17.5-110-132.8-80.3 123.1z" style="fill:rgb(218,153,328);fill-opacity:1"/><path d="M132.2-18.3-58.1-28l82.2 165z" style="fill:rgb(191,133,288);fill-opacity:1"/></g><g opacity="0"><animate attributeName="opacity" calcMode="discrete" repeatCount="indefinite" dur="2s" keyTimes="0;0.0417;0.0833;0.125;0.1667;0.2083;0.25;0.2917;0.3333;0.375;0.4167;0.4583;0.5;0.5417;0.5833;0.625;0.6667;0.7083;0.75;0.7917;0.8333;0.875;0.9167;0.9583;1" values="0;0;0;0;0;0;0;0;0;0;0;0;0;0;0;0;0;0;0;0;1;0;0;0;0"/><path d="m97.7 76.5 51-87.7L45 136.8zm-223.4 2.1 90.7 41.5 81.6 16.2z" style="fill:rgb(177,123,268);fill-opacity:1"/><path d="m-120.3-93.5 114.5 68 48.9-120.8z" style="fill:rgb(208,145,313);fill-opacity:1"/><path d="M148.9-9.9 42.3-146.5-6.8-25.8z" style="fill:rgb(222,156,334);fill-opacity:1"/><path d="m-5.3-26.3-114.5-67.9-5.3 174z" style="fill:rgb(166,115,252);fill-opacity:1"/><path d="M148.9-10.7-6.7-26.8l52.2 163.7z" style="fill:rgb(195,136,294);fill-opacity:1"/><path d="M-5.9-27.1-125.6 79.1l171.8 57.6z" style="fill:rgb(163,113,247);fill-opacity:1"/></g><g opacity="0"><animate attributeName="opacity" calcMode="discrete" repeatCount="indefinite" dur="2s" keyTimes="0;0.0417;0.0833;0.125;0.1667;0.2083;0.25;0.2917;0.3333;0.375;0.4167;0.4583;0.5;0.5417;0.5833;0.625;0.6667;0.7083;0.75;0.7917;0.8333;0.875;0.9167;0.9583;1" values="0;0;0;0;0;0;0;0;0;0;0;0;0;0;0;0;0;0;0;0;0;1;0;0;0"/><path d="m-108.6 81.7 58.3 38.1 113.6 15.6z" style="fill:rgb(175,121,264);fill-opacity:1"/><path d="m-133.6 3.3 26.1 79.8 4-185.1z" style="fill:rgb(178,124,269);fill-opacity:1"/><path d="M152.5-3.3 58.6-141.1l-13 120.8z" style="fill:rgb(224,157,337);fill-opacity:1"/><path d="M152.5-4.1 45.6-21.3l16.5 157.4z" style="fill:rgb(196,137,296);fill-opacity:1"/><path d="M-104.6-101.2 46.6-20l12.8-120.8z" style="fill:rgb(215,151,324);fill-opacity:1"/><path d="M46.5-21.5-108.6 82.3l171.5 53.6z" style="fill:rgb(165,114,250);fill-opacity:1"/><path d="m47-20.7-151.1-81.1-4 184.7z" style="fill:rgb(180,125,272);fill-opacity:1"/></g><g opacity="0"><animate attributeName="opacity" calcMode="discrete" repeatCount="indefinite" dur="2s" keyTimes="0;0.0417;0.0833;0.125;0.1667;0.2083;0.25;0.2917;0.3333;0.375;0.4167;0.4583;0.5;0.5417;0.5833;0.625;0.6667;0.7083;0.75;0.7917;0.8333;0.875;0.9167;0.9583;1" values="0;0;0;0;0;0;0;0;0;0;0;0;0;0;0;0;0;0;0;0;0;0;1;0;0"/><path d="m-78.2-105 149.5-29.3-132.1 23.6z" style="fill:rgb(209,146,315);fill-opacity:1"/><path d="m-79.4 87.6-68.2-88.7 85.3 121.8z" style="fill:rgb(185,129,280);fill-opacity:1"/><path d="m-80.2 87 17.1 33.2 137.2 13.1z" style="fill:rgb(172,120,261);fill-opacity:1"/><path d="M145.3.9 70-135 91.6-12.4z" style="fill:rgb(223,156,335);fill-opacity:1"/><path d="M145.3 0 91.6-13.4 72.8 134.1z" style="fill:rgb(195,136,294);fill-opacity:1"/><path d="m-147.6-.3 68.5 88.8 2.1-194.6z" style="fill:rgb(170,118,258);fill-opacity:1"/><path d="M-78.2-105.4 92.5-12.1 70.7-134.7z" style="fill:rgb(221,155,332);fill-opacity:1"/><path d="M92.5-13.6-80.4 87.7l154 46.1z" style="fill:rgb(171,119,259);fill-opacity:1"/><path d="M92.9-12.8-77.7-106l-2.2 194.4z" style="fill:rgb(191,133,288);fill-opacity:1"/></g><g opacity="0"><animate attributeName="opacity" calcMode="discrete" repeatCount="indefinite" dur="2s" keyTimes="0;0.0417;0.0833;0.125;0.1667;0.2083;0.25;0.2917;0.3333;0.375;0.4167;0.4583;0.5;0.5417;0.5833;0.625;0.6667;0.7083;0.75;0.7917;0.8333;0.875;0.9167;0.9583;1" values="0;0;0;0;0;0;0;0;0;0;0;0;0;0;0;0;0;0;0;0;0;0;0;1;0"/><path d="M129.6 2.4 75.9-129.4l50 124.2z" style="fill:rgb(220,154,331);fill-opacity:1"/><path d="m129.5 1.5-3.6-7.6-48.5 136.4z" style="fill:rgb(190,133,287);fill-opacity:1"/><path d="m-41.6-104.8 118.9-23.8-148.9 10.9z" style="fill:rgb(213,149,321);fill-opacity:1"/><path d="m-42.3 94-30.5 27.5 151.6 8z" style="fill:rgb(170,118,257);fill-opacity:1"/><path d="m-152.7-1 112-104.3-30.1-12.9zm111.3 95.5-111.3-97 80.6 124.4z" style="fill:rgb(180,125,272);fill-opacity:1"/><path d="m-42.4-105.3 169 100.8-50-124.5z" style="fill:rgb(224,157,338);fill-opacity:1"/><path d="M126.5-5.9-43.1 94.6 78.1 130z" style="fill:rgb(175,121,264);fill-opacity:1"/><path d="m-152.8-1.8 111 97.1.6-201.2z" style="fill:rgb(166,115,251);fill-opacity:1"/><path d="M126.8-5.2-42-105.9l-.6 201.1z" style="fill:rgb(199,139,300);fill-opacity:1"/></g></svg>